<?xml version="1.0" encoding="utf-8"?>
<svg version="1.1" id="Layer_1" xmlns="http://www.w3.org/2000/svg" x="0px"
     y="0px"
     viewBox="0 0 16 16" width="16" height="16" style="enable-background:new 0 0 16 16;" xml:space="preserve">
  <rect width="1" height="12" x="1" y="2" fill="#6E6E6E" transform="matrix(0.9999999999999999, 0, 0, 0.9999999999999999, -1.7763568394002505e-15, 0)"/>
    <rect width="2" height="1" x="2" y="2" fill="#6E6E6E" transform="matrix(0.9999999999999999, 0, 0, 0.9999999999999999, -1.7763568394002505e-15, 0)"/>
    <rect width="2" height="1" x="2" y="13" fill="#6E6E6E" transform="matrix(0.9999999999999999, 0, 0, 0.9999999999999999, -1.7763568394002505e-15, 0)"/>
    <rect width="1" height="12" x="14" y="2" fill="#6E6E6E" transform="matrix(0.9999999999999999, 0, 0, 0.9999999999999999, -1.7763568394002505e-15, 0)"/>
    <rect width="3" height="1" x="12" y="2" fill="#6E6E6E" transform="matrix(0.9999999999999999, 0, 0, 0.9999999999999999, -1.7763568394002505e-15, 0)"/>
    <rect width="2" height="1" x="12" y="13" fill="#6E6E6E" transform="matrix(0.9999999999999999, 0, 0, 0.9999999999999999, -1.7763568394002505e-15, 0)"/>
    <g transform="matrix(0.9999999999999999, 0, 0, 0.9999999999999999, -0.14638100564480006, -1.5971651077270508)">
        <path class="st1" d="M 5.163 12.431 L 5.163 11.431 C 7.063 11.431 8.363 10.931 9.263 10.031 C 10.063 9.131 10.463 7.831 10.463 6.131 L 11.463 6.131 C 11.463 8.131 10.963 9.631 9.963 10.731 C 8.963 11.831 7.263 12.431 5.163 12.431 Z" style="fill: rgb(89, 168, 105);"/>
        <path class="st1" d="M 5.163 10.731 L 5.163 9.731 C 6.463 9.731 7.363 9.431 7.963 8.731 C 8.563 8.131 8.763 7.231 8.763 6.131 L 9.763 6.131 C 9.763 7.531 9.463 8.731 8.663 9.431 C 7.963 10.231 6.763 10.631 5.163 10.731 Z" style="fill: rgb(89, 168, 105);"/>
        <path class="st1" d="M 5.363 8.931 L 5.363 7.931 C 5.963 7.931 6.463 7.731 6.663 7.531 C 6.963 7.231 7.063 6.831 7.063 6.231 L 8.063 6.231 C 8.063 7.031 7.863 7.731 7.463 8.231 C 6.963 8.631 6.263 8.931 5.363 8.931 Z" style="fill: rgb(89, 168, 105);"/>
  </g>
</svg>