<!-- Copyright 2000-2023 JetBrains s.r.o. and contributors. Use of this source code is governed by the Apache 2.0 license. -->
<svg width="16" height="16" viewBox="0 0 16 16" fill="none" xmlns="http://www.w3.org/2000/svg">
    <g clip-path="url(#clip0_12362_11792)">
        <path d="M4 4V12C4 13.1046 4.89543 14 6 14H8V10C8 8.89543 8.89543 8 10 8H12V4C12 2.89543 11.1046 2 10 2H6C4.89543 2 4 2.89543 4 4Z" fill="#EBECF0"/>
        <path d="M6 2C4.89543 2 4 2.89543 4 4H1.5C1.22386 4 1 4.22386 1 4.5C1 4.77614 1.22386 5 1.5 5H3.99998L4 4V12L3.99998 11H1.5C1.22386 11 1 11.2239 1 11.5C1 11.7761 1.22386 12 1.5 12H4C4 13.1046 4.89543 14 6 14H8V13H6C5.44772 13 5 12.5523 5 12V4C5 3.44772 5.44772 3 6 3H10C10.5523 3 11 3.44772 11 4V8H12V5H14.5C14.7761 5 15 4.77614 15 4.5C15 4.22386 14.7761 4 14.5 4H12C12 2.89543 11.1046 2 10 2H6Z" fill="#6C707E"/>
        <path d="M1.5 7.5C1.22386 7.5 1 7.72386 1 8C1 8.27614 1.22386 8.5 1.5 8.5H3.99998V7.5H1.5Z" fill="#6C707E"/>
        <path d="M 11.409 12.468 C 11.85 12.468 12.209 12.111 12.209 11.668 C 12.209 11.227 11.85 10.868 11.409 10.868 C 10.967 10.868 10.609 11.227 10.609 11.668 C 10.609 12.111 10.967 12.468 11.409 12.468 Z" fill="#6C707E" style=""/>
        <path fill-rule="evenodd" clip-rule="evenodd" d="M 12.305 14.608 C 12.248 14.764 12.098 14.868 11.931 14.868 L 10.887 14.868 C 10.719 14.868 10.57 14.764 10.511 14.608 L 10.311 14.076 C 10.245 13.897 10.06 13.791 9.871 13.821 L 9.31 13.915 C 9.147 13.942 8.982 13.865 8.899 13.721 L 8.376 12.816 C 8.292 12.671 8.308 12.49 8.414 12.361 L 8.776 11.922 C 8.896 11.774 8.896 11.561 8.776 11.414 L 8.414 10.975 C 8.308 10.847 8.292 10.666 8.376 10.521 L 8.899 9.616 C 8.982 9.471 9.147 9.394 9.31 9.421 L 9.871 9.514 C 10.06 9.546 10.245 9.44 10.311 9.261 L 10.511 8.728 C 10.57 8.572 10.719 8.469 10.887 8.469 L 11.931 8.469 C 12.098 8.469 12.248 8.572 12.305 8.728 L 12.505 9.261 C 12.572 9.44 12.756 9.546 12.945 9.514 L 13.506 9.421 C 13.671 9.394 13.834 9.471 13.918 9.616 L 14.441 10.521 C 14.524 10.666 14.509 10.847 14.403 10.975 L 14.042 11.414 C 13.92 11.561 13.92 11.774 14.042 11.922 L 14.403 12.361 C 14.509 12.49 14.524 12.671 14.441 12.816 L 13.918 13.721 C 13.834 13.865 13.671 13.942 13.506 13.915 L 12.945 13.821 C 12.756 13.791 12.572 13.897 12.505 14.076 L 12.305 14.608 Z M 11.162 14.068 L 11.654 14.068 L 11.756 13.795 C 11.957 13.258 12.511 12.939 13.076 13.033 L 13.364 13.081 L 13.609 12.656 L 13.425 12.431 C 13.06 11.987 13.06 11.349 13.425 10.906 L 13.609 10.682 L 13.364 10.256 L 13.076 10.304 C 12.511 10.399 11.957 10.079 11.756 9.541 L 11.654 9.269 L 11.162 9.269 L 11.061 9.541 C 10.859 10.079 10.307 10.399 9.74 10.304 L 9.453 10.256 L 9.208 10.682 L 9.392 10.906 C 9.757 11.349 9.757 11.987 9.392 12.431 L 9.208 12.656 L 9.453 13.081 L 9.74 13.033 C 10.307 12.939 10.859 13.258 11.061 13.795 L 11.162 14.068 Z" fill="#6C707E" style=""/>
        <path fill-rule="evenodd" clip-rule="evenodd" d="M 11.657 14.068 L 11.167 14.068 L 11.064 13.795 C 10.862 13.258 10.309 12.939 9.744 13.033 L 9.456 13.081 L 9.212 12.656 L 9.395 12.431 C 9.76 11.987 9.76 11.349 9.395 10.906 L 9.212 10.682 L 9.456 10.256 L 9.744 10.304 C 10.309 10.399 10.862 10.079 11.064 9.541 L 11.167 9.269 L 11.657 9.269 L 11.759 9.541 C 11.96 10.079 12.514 10.399 13.08 10.304 L 13.367 10.256 L 13.613 10.682 L 13.427 10.906 C 13.063 11.349 13.063 11.987 13.427 12.431 L 13.613 12.656 L 13.367 13.081 L 13.08 13.033 C 12.514 12.939 11.96 13.258 11.759 13.795 L 11.657 14.068 Z M 12.211 11.668 C 12.211 12.111 11.853 12.468 11.412 12.468 C 10.97 12.468 10.612 12.111 10.612 11.668 C 10.612 11.227 10.97 10.868 11.412 10.868 C 11.853 10.868 12.211 11.227 12.211 11.668 Z" fill="#EBECF0" style=""/>

    </g>
    <defs>
        <clipPath id="clip0_12362_11792">
            <rect width="16" height="16" fill="white"/>
        </clipPath>
    </defs>
</svg>
